<mxfile host="65bd71144e" modified="2023-07-14T13:43:23.636Z" agent="Mozilla/5.0 (X11; Linux x86_64) AppleWebKit/537.36 (KHTML, like Gecko) Code/1.80.0 Chrome/108.0.5359.215 Electron/22.3.14 Safari/537.36" etag="ck18FRUq1JlC3xkU0tWX" version="21.6.2" type="embed" pages="2">
    <diagram id="uZBdi8j3Q2KFLS6FdFYn" name="water-cycle">
        <mxGraphModel dx="1019" dy="626" grid="1" gridSize="10" guides="1" tooltips="1" connect="1" arrows="1" fold="1" page="1" pageScale="1" pageWidth="850" pageHeight="1100" math="0" shadow="0">
            <root>
                <mxCell id="0"/>
                <mxCell id="1" parent="0"/>
                <mxCell id="SlHaAS4gD0f9uBEAn6q1-1" value="&lt;font color=&quot;#000000&quot;&gt;Reservoir&lt;/font&gt;" style="text;html=1;strokeColor=#d79b00;fillColor=#ffe6cc;align=center;verticalAlign=middle;whiteSpace=wrap;rounded=1;fontSize=16;perimeterSpacing=0;fontStyle=0" vertex="1" parent="1">
                    <mxGeometry x="202" y="313" width="160" height="30" as="geometry"/>
                </mxCell>
                <mxCell id="SlHaAS4gD0f9uBEAn6q1-2" value="" style="endArrow=classic;html=1;rounded=0;fontSize=16;fontColor=#000000;fillColor=#ffe6cc;strokeColor=#FFCE9F;strokeWidth=6;entryX=0;entryY=0.5;entryDx=0;entryDy=0;exitX=1;exitY=0.5;exitDx=0;exitDy=0;" edge="1" parent="1">
                    <mxGeometry width="50" height="50" relative="1" as="geometry">
                        <mxPoint x="335" y="386.25" as="sourcePoint"/>
                        <mxPoint x="506" y="386.5" as="targetPoint"/>
                    </mxGeometry>
                </mxCell>
                <mxCell id="SlHaAS4gD0f9uBEAn6q1-3" value="&lt;font color=&quot;#000000&quot;&gt;Treatment Plant&lt;/font&gt;" style="text;html=1;strokeColor=#d79b00;fillColor=#ffe6cc;align=center;verticalAlign=middle;whiteSpace=wrap;rounded=1;fontSize=16;perimeterSpacing=0;fontStyle=0" vertex="1" parent="1">
                    <mxGeometry x="470" y="313" width="160" height="30" as="geometry"/>
                </mxCell>
                <mxCell id="SlHaAS4gD0f9uBEAn6q1-4" value="&lt;span style=&quot;font-family: &amp;#34;helvetica&amp;#34; ; font-size: 16px ; font-style: normal ; font-weight: 400 ; letter-spacing: normal ; text-indent: 0px ; text-transform: none ; word-spacing: 0px ; display: inline ; float: none&quot;&gt;Distribution&lt;/span&gt;" style="text;whiteSpace=wrap;html=1;fontSize=17;fontFamily=Verdana;align=center;labelBackgroundColor=none;fillColor=#fff2cc;strokeColor=#d6b656;fontColor=#000000;" vertex="1" parent="1">
                    <mxGeometry x="860" y="401" width="80" height="30" as="geometry"/>
                </mxCell>
                <mxCell id="SlHaAS4gD0f9uBEAn6q1-5" value="&lt;span style=&quot;font-family: &amp;#34;helvetica&amp;#34; ; font-size: 16px ; font-style: normal ; font-weight: 400 ; letter-spacing: normal ; text-indent: 0px ; text-transform: none ; word-spacing: 0px ; display: inline ; float: none&quot;&gt;Treatment&lt;br&gt;&lt;/span&gt;" style="text;whiteSpace=wrap;html=1;fontSize=17;fontFamily=Verdana;align=center;labelBackgroundColor=none;fillColor=#fff2cc;strokeColor=#d6b656;fontColor=#000000;" vertex="1" parent="1">
                    <mxGeometry x="370" y="401" width="90" height="30" as="geometry"/>
                </mxCell>
                <mxCell id="SlHaAS4gD0f9uBEAn6q1-6" value="" style="group" vertex="1" connectable="0" parent="1">
                    <mxGeometry x="394" y="332.5" width="40" height="40" as="geometry"/>
                </mxCell>
                <mxCell id="SlHaAS4gD0f9uBEAn6q1-7" value="" style="ellipse;whiteSpace=wrap;html=1;aspect=fixed;fillColor=#FFB570;strokeColor=none;" vertex="1" parent="SlHaAS4gD0f9uBEAn6q1-6">
                    <mxGeometry width="40" height="40" as="geometry"/>
                </mxCell>
                <mxCell id="SlHaAS4gD0f9uBEAn6q1-8" value="" style="rounded=0;whiteSpace=wrap;html=1;fontColor=#007FFF;fillColor=#FFB570;strokeColor=none;" vertex="1" parent="SlHaAS4gD0f9uBEAn6q1-6">
                    <mxGeometry x="14.5" y="0.5" width="25" height="25.5" as="geometry"/>
                </mxCell>
                <mxCell id="SlHaAS4gD0f9uBEAn6q1-9" value="&lt;font style=&quot;font-size: 16px;&quot;&gt;1&lt;/font&gt;" style="text;html=1;align=center;verticalAlign=middle;resizable=0;points=[];autosize=1;strokeColor=none;fillColor=none;fontSize=13;fontColor=#000000;fontStyle=1" vertex="1" parent="SlHaAS4gD0f9uBEAn6q1-6">
                    <mxGeometry x="5" y="5" width="30" height="30" as="geometry"/>
                </mxCell>
                <mxCell id="SlHaAS4gD0f9uBEAn6q1-10" value="" style="endArrow=classic;html=1;rounded=0;fontSize=16;fontColor=#000000;fillColor=#ffe6cc;strokeColor=#FFCE9F;strokeWidth=6;entryX=0;entryY=0.5;entryDx=0;entryDy=0;exitX=1;exitY=0.5;exitDx=0;exitDy=0;" edge="1" parent="1">
                    <mxGeometry width="50" height="50" relative="1" as="geometry">
                        <mxPoint x="593" y="386.5" as="sourcePoint"/>
                        <mxPoint x="760" y="385.9999999999999" as="targetPoint"/>
                    </mxGeometry>
                </mxCell>
                <mxCell id="SlHaAS4gD0f9uBEAn6q1-11" value="" style="group" vertex="1" connectable="0" parent="1">
                    <mxGeometry x="660" y="332.5" width="40" height="40" as="geometry"/>
                </mxCell>
                <mxCell id="SlHaAS4gD0f9uBEAn6q1-12" value="" style="ellipse;whiteSpace=wrap;html=1;aspect=fixed;fillColor=#FFB570;strokeColor=none;" vertex="1" parent="SlHaAS4gD0f9uBEAn6q1-11">
                    <mxGeometry width="40" height="40" as="geometry"/>
                </mxCell>
                <mxCell id="SlHaAS4gD0f9uBEAn6q1-13" value="" style="rounded=0;whiteSpace=wrap;html=1;fontColor=#007FFF;fillColor=#FFB570;strokeColor=none;" vertex="1" parent="SlHaAS4gD0f9uBEAn6q1-11">
                    <mxGeometry x="14.5" y="0.5" width="25" height="25.5" as="geometry"/>
                </mxCell>
                <mxCell id="SlHaAS4gD0f9uBEAn6q1-14" value="&lt;font style=&quot;font-size: 16px&quot;&gt;2&lt;/font&gt;" style="text;html=1;align=center;verticalAlign=middle;resizable=0;points=[];autosize=1;strokeColor=none;fillColor=none;fontSize=13;fontColor=#000000;fontStyle=1" vertex="1" parent="SlHaAS4gD0f9uBEAn6q1-11">
                    <mxGeometry x="10" y="10" width="20" height="20" as="geometry"/>
                </mxCell>
                <mxCell id="SlHaAS4gD0f9uBEAn6q1-15" value="" style="endArrow=classic;html=1;rounded=0;fontSize=16;fontColor=#000000;fillColor=#ffe6cc;strokeColor=#FFCE9F;strokeWidth=6;exitX=1;exitY=0.5;exitDx=0;exitDy=0;entryX=-0.071;entryY=0.386;entryDx=0;entryDy=0;entryPerimeter=0;" edge="1" parent="1">
                    <mxGeometry width="50" height="50" relative="1" as="geometry">
                        <mxPoint x="848" y="386" as="sourcePoint"/>
                        <mxPoint x="955.0300000000002" y="387.0200000000001" as="targetPoint"/>
                    </mxGeometry>
                </mxCell>
                <mxCell id="SlHaAS4gD0f9uBEAn6q1-16" value="" style="group" vertex="1" connectable="0" parent="1">
                    <mxGeometry x="880" y="332.5" width="40" height="40" as="geometry"/>
                </mxCell>
                <mxCell id="SlHaAS4gD0f9uBEAn6q1-17" value="" style="ellipse;whiteSpace=wrap;html=1;aspect=fixed;fillColor=#FFB570;strokeColor=none;" vertex="1" parent="SlHaAS4gD0f9uBEAn6q1-16">
                    <mxGeometry width="40" height="40" as="geometry"/>
                </mxCell>
                <mxCell id="SlHaAS4gD0f9uBEAn6q1-18" value="" style="rounded=0;whiteSpace=wrap;html=1;fontColor=#007FFF;fillColor=#FFB570;strokeColor=none;" vertex="1" parent="SlHaAS4gD0f9uBEAn6q1-16">
                    <mxGeometry x="14.5" y="0.5" width="25" height="25.5" as="geometry"/>
                </mxCell>
                <mxCell id="SlHaAS4gD0f9uBEAn6q1-19" value="&lt;font style=&quot;font-size: 16px&quot;&gt;3&lt;/font&gt;" style="text;html=1;align=center;verticalAlign=middle;resizable=0;points=[];autosize=1;strokeColor=none;fillColor=none;fontSize=13;fontColor=#000000;fontStyle=1" vertex="1" parent="SlHaAS4gD0f9uBEAn6q1-16">
                    <mxGeometry x="10" y="10" width="20" height="20" as="geometry"/>
                </mxCell>
                <mxCell id="SlHaAS4gD0f9uBEAn6q1-20" value="&lt;span style=&quot;font-family: helvetica; font-size: 16px; font-style: normal; font-weight: 400; letter-spacing: normal; text-indent: 0px; text-transform: none; word-spacing: 0px; display: inline; float: none;&quot;&gt;Storage&lt;/span&gt;" style="text;whiteSpace=wrap;html=1;fontSize=17;fontFamily=Verdana;align=center;labelBackgroundColor=none;fillColor=#fff2cc;strokeColor=#d6b656;fontColor=#000000;" vertex="1" parent="1">
                    <mxGeometry x="640" y="400" width="80" height="30" as="geometry"/>
                </mxCell>
                <mxCell id="SlHaAS4gD0f9uBEAn6q1-21" value="" style="endArrow=classic;html=1;rounded=0;fontSize=16;fontColor=#000000;fillColor=#ffe6cc;strokeColor=#FFCE9F;strokeWidth=6;entryX=0.991;entryY=0.447;entryDx=0;entryDy=0;entryPerimeter=0;" edge="1" parent="1" target="SlHaAS4gD0f9uBEAn6q1-60">
                    <mxGeometry width="50" height="50" relative="1" as="geometry">
                        <mxPoint x="950" y="545" as="sourcePoint"/>
                        <mxPoint x="848" y="545" as="targetPoint"/>
                    </mxGeometry>
                </mxCell>
                <mxCell id="SlHaAS4gD0f9uBEAn6q1-22" value="" style="endArrow=classic;html=1;rounded=0;fontSize=16;fontColor=#000000;fillColor=#ffe6cc;strokeColor=#FFCE9F;strokeWidth=6;entryX=1;entryY=0.75;entryDx=0;entryDy=0;" edge="1" parent="1" target="SlHaAS4gD0f9uBEAn6q1-60">
                    <mxGeometry width="50" height="50" relative="1" as="geometry">
                        <mxPoint x="930" y="620" as="sourcePoint"/>
                        <mxPoint x="850" y="560.04" as="targetPoint"/>
                    </mxGeometry>
                </mxCell>
                <mxCell id="SlHaAS4gD0f9uBEAn6q1-23" value="&lt;span style=&quot;font-family: &amp;#34;helvetica&amp;#34; ; font-size: 16px ; font-style: normal ; font-weight: 400 ; letter-spacing: normal ; text-indent: 0px ; text-transform: none ; word-spacing: 0px ; display: inline ; float: none&quot;&gt;Consumption&lt;/span&gt;" style="text;whiteSpace=wrap;html=1;fontSize=17;fontFamily=Verdana;align=center;labelBackgroundColor=none;fillColor=#fff2cc;strokeColor=#d6b656;fontColor=#000000;" vertex="1" parent="1">
                    <mxGeometry x="1025.5" y="460" width="110" height="30" as="geometry"/>
                </mxCell>
                <mxCell id="SlHaAS4gD0f9uBEAn6q1-24" value="" style="group" vertex="1" connectable="0" parent="1">
                    <mxGeometry x="868" y="490" width="40" height="40" as="geometry"/>
                </mxCell>
                <mxCell id="SlHaAS4gD0f9uBEAn6q1-25" value="" style="ellipse;whiteSpace=wrap;html=1;aspect=fixed;fillColor=#FFB570;strokeColor=none;" vertex="1" parent="SlHaAS4gD0f9uBEAn6q1-24">
                    <mxGeometry width="40" height="40" as="geometry"/>
                </mxCell>
                <mxCell id="SlHaAS4gD0f9uBEAn6q1-26" value="" style="rounded=0;whiteSpace=wrap;html=1;fontColor=#007FFF;fillColor=#FFB570;strokeColor=none;" vertex="1" parent="SlHaAS4gD0f9uBEAn6q1-24">
                    <mxGeometry x="14.5" y="0.5" width="25" height="25.5" as="geometry"/>
                </mxCell>
                <mxCell id="SlHaAS4gD0f9uBEAn6q1-27" value="&lt;font style=&quot;font-size: 16px&quot;&gt;4&lt;/font&gt;" style="text;html=1;align=center;verticalAlign=middle;resizable=0;points=[];autosize=1;strokeColor=none;fillColor=none;fontSize=13;fontColor=#000000;fontStyle=1" vertex="1" parent="SlHaAS4gD0f9uBEAn6q1-24">
                    <mxGeometry x="10" y="10" width="20" height="20" as="geometry"/>
                </mxCell>
                <mxCell id="SlHaAS4gD0f9uBEAn6q1-28" value="&lt;span style=&quot;font-family: &amp;#34;helvetica&amp;#34; ; font-size: 16px ; font-style: normal ; font-weight: 400 ; letter-spacing: normal ; text-indent: 0px ; text-transform: none ; word-spacing: 0px ; display: inline ; float: none&quot;&gt;Depuration&lt;/span&gt;" style="text;whiteSpace=wrap;html=1;fontSize=17;fontFamily=Verdana;align=center;labelBackgroundColor=none;fillColor=#fff2cc;strokeColor=#d6b656;fontColor=#000000;" vertex="1" parent="1">
                    <mxGeometry x="848" y="640" width="80" height="30" as="geometry"/>
                </mxCell>
                <mxCell id="SlHaAS4gD0f9uBEAn6q1-29" value="&lt;font color=&quot;#000000&quot;&gt;Sewerage&lt;/font&gt;" style="text;html=1;strokeColor=#d79b00;fillColor=#ffe6cc;align=center;verticalAlign=middle;whiteSpace=wrap;rounded=1;fontSize=16;perimeterSpacing=0;fontStyle=0" vertex="1" parent="1">
                    <mxGeometry x="965" y="670" width="110" height="30" as="geometry"/>
                </mxCell>
                <mxCell id="SlHaAS4gD0f9uBEAn6q1-30" value="" style="endArrow=classic;html=1;rounded=0;fontSize=16;fontColor=#000000;fillColor=#ffe6cc;strokeColor=#FFCE9F;strokeWidth=6;" edge="1" parent="1">
                    <mxGeometry width="50" height="50" relative="1" as="geometry">
                        <mxPoint x="760" y="544.5" as="sourcePoint"/>
                        <mxPoint x="600" y="545" as="targetPoint"/>
                    </mxGeometry>
                </mxCell>
                <mxCell id="SlHaAS4gD0f9uBEAn6q1-31" value="" style="endArrow=classic;html=1;rounded=0;fontSize=16;fontColor=#000000;fillColor=#ffe6cc;strokeColor=#FFCE9F;strokeWidth=6;entryX=0.75;entryY=1;entryDx=0;entryDy=0;" edge="1" parent="1">
                    <mxGeometry width="50" height="50" relative="1" as="geometry">
                        <mxPoint x="500" y="550" as="sourcePoint"/>
                        <mxPoint x="308.125" y="440" as="targetPoint"/>
                    </mxGeometry>
                </mxCell>
                <mxCell id="SlHaAS4gD0f9uBEAn6q1-32" value="" style="group" vertex="1" connectable="0" parent="1">
                    <mxGeometry x="660" y="490" width="40" height="40" as="geometry"/>
                </mxCell>
                <mxCell id="SlHaAS4gD0f9uBEAn6q1-33" value="" style="ellipse;whiteSpace=wrap;html=1;aspect=fixed;fillColor=#FFB570;strokeColor=none;" vertex="1" parent="SlHaAS4gD0f9uBEAn6q1-32">
                    <mxGeometry width="40" height="40" as="geometry"/>
                </mxCell>
                <mxCell id="SlHaAS4gD0f9uBEAn6q1-34" value="" style="rounded=0;whiteSpace=wrap;html=1;fontColor=#007FFF;fillColor=#FFB570;strokeColor=none;" vertex="1" parent="SlHaAS4gD0f9uBEAn6q1-32">
                    <mxGeometry x="14.5" y="0.5" width="25" height="25.5" as="geometry"/>
                </mxCell>
                <mxCell id="SlHaAS4gD0f9uBEAn6q1-35" value="&lt;font style=&quot;font-size: 16px&quot;&gt;5&lt;/font&gt;" style="text;html=1;align=center;verticalAlign=middle;resizable=0;points=[];autosize=1;strokeColor=none;fillColor=none;fontSize=13;fontColor=#000000;fontStyle=1" vertex="1" parent="SlHaAS4gD0f9uBEAn6q1-32">
                    <mxGeometry x="10" y="10" width="20" height="20" as="geometry"/>
                </mxCell>
                <mxCell id="SlHaAS4gD0f9uBEAn6q1-36" value="&lt;span style=&quot;font-family: &amp;#34;helvetica&amp;#34; ; font-size: 16px ; font-style: normal ; font-weight: 400 ; letter-spacing: normal ; text-indent: 0px ; text-transform: none ; word-spacing: 0px ; display: inline ; float: none&quot;&gt;Return&lt;/span&gt;" style="text;whiteSpace=wrap;html=1;fontSize=17;fontFamily=Verdana;align=center;labelBackgroundColor=none;fillColor=#fff2cc;strokeColor=#d6b656;fontColor=#000000;" vertex="1" parent="1">
                    <mxGeometry x="640" y="555" width="80" height="30" as="geometry"/>
                </mxCell>
                <mxCell id="SlHaAS4gD0f9uBEAn6q1-37" value="" style="group" vertex="1" connectable="0" parent="1">
                    <mxGeometry x="240" y="342.0003759398496" width="103.31049289891396" height="86.61962406015037" as="geometry"/>
                </mxCell>
                <mxCell id="SlHaAS4gD0f9uBEAn6q1-38" value="" style="shape=image;html=1;verticalAlign=top;verticalLabelPosition=bottom;labelBackgroundColor=#ffffff;imageAspect=0;aspect=fixed;image=https://cdn0.iconfinder.com/data/icons/phosphor-regular-vol-4/256/tree-evergreen-128.png;sketch=0;" vertex="1" parent="SlHaAS4gD0f9uBEAn6q1-37">
                    <mxGeometry y="0.0030827067669165764" width="43.30827067669173" height="43.30827067669173" as="geometry"/>
                </mxCell>
                <mxCell id="SlHaAS4gD0f9uBEAn6q1-39" value="" style="shape=image;html=1;verticalAlign=top;verticalLabelPosition=bottom;labelBackgroundColor=#ffffff;imageAspect=0;aspect=fixed;image=https://cdn0.iconfinder.com/data/icons/phosphor-regular-vol-4/256/tree-evergreen-128.png;sketch=0;" vertex="1" parent="SlHaAS4gD0f9uBEAn6q1-37">
                    <mxGeometry x="28.915" y="6.769624060150376" width="43.30827067669173" height="43.30827067669173" as="geometry"/>
                </mxCell>
                <mxCell id="SlHaAS4gD0f9uBEAn6q1-40" value="" style="shape=image;html=1;verticalAlign=top;verticalLabelPosition=bottom;labelBackgroundColor=#ffffff;imageAspect=0;aspect=fixed;image=https://cdn0.iconfinder.com/data/icons/phosphor-regular-vol-4/256/tree-evergreen-128.png;sketch=0;" vertex="1" parent="SlHaAS4gD0f9uBEAn6q1-37">
                    <mxGeometry x="60.00222222222223" width="43.30827067669173" height="43.30827067669173" as="geometry"/>
                </mxCell>
                <mxCell id="SlHaAS4gD0f9uBEAn6q1-41" value="" style="shape=image;html=1;verticalAlign=top;verticalLabelPosition=bottom;labelBackgroundColor=#ffffff;imageAspect=0;aspect=fixed;image=https://cdn3.iconfinder.com/data/icons/summer-glyph-24-px/24/Ocean_sea_sea_waves_water_water_waves-128.png;sketch=0;" vertex="1" parent="SlHaAS4gD0f9uBEAn6q1-37">
                    <mxGeometry x="9.027777777777779" y="39.927894736842106" width="43.30827067669173" height="43.30827067669173" as="geometry"/>
                </mxCell>
                <mxCell id="SlHaAS4gD0f9uBEAn6q1-42" value="" style="shape=image;html=1;verticalAlign=top;verticalLabelPosition=bottom;labelBackgroundColor=#ffffff;imageAspect=0;aspect=fixed;image=https://cdn3.iconfinder.com/data/icons/summer-glyph-24-px/24/Ocean_sea_sea_waves_water_water_waves-128.png;sketch=0;" vertex="1" parent="SlHaAS4gD0f9uBEAn6q1-37">
                    <mxGeometry x="43.346666666666664" y="43.31135338345864" width="43.30827067669173" height="43.30827067669173" as="geometry"/>
                </mxCell>
                <mxCell id="SlHaAS4gD0f9uBEAn6q1-43" value="" style="shape=image;html=1;verticalAlign=top;verticalLabelPosition=bottom;labelBackgroundColor=#ffffff;imageAspect=0;aspect=fixed;image=https://cdn3.iconfinder.com/data/icons/summer-glyph-24-px/24/Ocean_sea_sea_waves_water_water_waves-128.png;sketch=0;" vertex="1" parent="1">
                    <mxGeometry x="515.5" y="516" width="69" height="69" as="geometry"/>
                </mxCell>
                <mxCell id="SlHaAS4gD0f9uBEAn6q1-44" value="" style="group" vertex="1" connectable="0" parent="1">
                    <mxGeometry x="505" y="350" width="84" height="80" as="geometry"/>
                </mxCell>
                <mxCell id="SlHaAS4gD0f9uBEAn6q1-45" value="" style="shape=waypoint;sketch=0;size=6;pointerEvents=1;points=[];fillColor=none;resizable=0;rotatable=0;perimeter=centerPerimeter;snapToPoint=1;labelBackgroundColor=none;fontColor=#000000;strokeWidth=0;" vertex="1" parent="SlHaAS4gD0f9uBEAn6q1-44">
                    <mxGeometry x="16.9375" y="8.49956647398843" width="40" height="40" as="geometry"/>
                </mxCell>
                <mxCell id="SlHaAS4gD0f9uBEAn6q1-46" value="" style="shape=image;html=1;verticalAlign=top;verticalLabelPosition=bottom;labelBackgroundColor=#ffffff;imageAspect=0;aspect=fixed;image=https://cdn1.iconfinder.com/data/icons/ionicons-outline-vol-2/512/water-outline-128.png;sketch=0;" vertex="1" parent="SlHaAS4gD0f9uBEAn6q1-44">
                    <mxGeometry width="80" height="80" as="geometry"/>
                </mxCell>
                <mxCell id="SlHaAS4gD0f9uBEAn6q1-47" value="" style="endArrow=none;html=1;rounded=0;strokeWidth=5;" edge="1" parent="SlHaAS4gD0f9uBEAn6q1-44">
                    <mxGeometry width="50" height="50" relative="1" as="geometry">
                        <mxPoint x="3.9375" y="40.75" as="sourcePoint"/>
                        <mxPoint x="82.6875" y="40.75" as="targetPoint"/>
                    </mxGeometry>
                </mxCell>
                <mxCell id="SlHaAS4gD0f9uBEAn6q1-48" value="" style="shape=waypoint;sketch=0;size=6;pointerEvents=1;points=[];fillColor=none;resizable=0;rotatable=0;perimeter=centerPerimeter;snapToPoint=1;labelBackgroundColor=none;fontColor=#000000;strokeWidth=0;" vertex="1" parent="SlHaAS4gD0f9uBEAn6q1-44">
                    <mxGeometry x="31.046875" y="14.37456647398843" width="40" height="40" as="geometry"/>
                </mxCell>
                <mxCell id="SlHaAS4gD0f9uBEAn6q1-49" value="" style="shape=waypoint;sketch=0;size=6;pointerEvents=1;points=[];fillColor=none;resizable=0;rotatable=0;perimeter=centerPerimeter;snapToPoint=1;labelBackgroundColor=none;fontColor=#000000;strokeWidth=0;" vertex="1" parent="SlHaAS4gD0f9uBEAn6q1-44">
                    <mxGeometry x="9.75" y="13.74956647398843" width="40" height="40" as="geometry"/>
                </mxCell>
                <mxCell id="SlHaAS4gD0f9uBEAn6q1-50" value="" style="shape=waypoint;sketch=0;size=6;pointerEvents=1;points=[];fillColor=none;resizable=0;rotatable=0;perimeter=centerPerimeter;snapToPoint=1;labelBackgroundColor=none;fontColor=#000000;strokeWidth=0;" vertex="1" parent="SlHaAS4gD0f9uBEAn6q1-44">
                    <mxGeometry x="23.46875" y="2.2495664739884305" width="40" height="40" as="geometry"/>
                </mxCell>
                <mxCell id="SlHaAS4gD0f9uBEAn6q1-51" value="" style="verticalLabelPosition=bottom;verticalAlign=top;html=1;shape=mxgraph.basic.4_point_star_2;dx=0.8;sketch=0;strokeWidth=2;" vertex="1" parent="SlHaAS4gD0f9uBEAn6q1-44">
                    <mxGeometry x="13.125" y="49.375" width="17.71875" height="25.625" as="geometry"/>
                </mxCell>
                <mxCell id="SlHaAS4gD0f9uBEAn6q1-52" value="" style="verticalLabelPosition=bottom;verticalAlign=top;html=1;shape=mxgraph.basic.4_point_star_2;dx=0.8;sketch=0;strokeWidth=2;" vertex="1" parent="SlHaAS4gD0f9uBEAn6q1-44">
                    <mxGeometry x="59.71875" y="42.5" width="17.71875" height="25.625" as="geometry"/>
                </mxCell>
                <mxCell id="SlHaAS4gD0f9uBEAn6q1-53" value="" style="group" vertex="1" connectable="0" parent="1">
                    <mxGeometry x="964.5" y="375" width="61" height="194.79999999999995" as="geometry"/>
                </mxCell>
                <mxCell id="SlHaAS4gD0f9uBEAn6q1-54" value="" style="group" vertex="1" connectable="0" parent="SlHaAS4gD0f9uBEAn6q1-53">
                    <mxGeometry x="10.5" y="64.65317919075142" width="40" height="75.14450867052022" as="geometry"/>
                </mxCell>
                <mxCell id="SlHaAS4gD0f9uBEAn6q1-55" value="" style="shape=waypoint;sketch=0;size=6;pointerEvents=1;points=[];fillColor=none;resizable=0;rotatable=0;perimeter=centerPerimeter;snapToPoint=1;labelBackgroundColor=none;fontColor=#000000;" vertex="1" parent="SlHaAS4gD0f9uBEAn6q1-54">
                    <mxGeometry width="40" height="40" as="geometry"/>
                </mxCell>
                <mxCell id="SlHaAS4gD0f9uBEAn6q1-56" value="" style="shape=waypoint;sketch=0;size=6;pointerEvents=1;points=[];fillColor=none;resizable=0;rotatable=0;perimeter=centerPerimeter;snapToPoint=1;labelBackgroundColor=none;fontColor=#000000;" vertex="1" parent="SlHaAS4gD0f9uBEAn6q1-54">
                    <mxGeometry y="18.786127167630056" width="40" height="40" as="geometry"/>
                </mxCell>
                <mxCell id="SlHaAS4gD0f9uBEAn6q1-57" value="" style="shape=waypoint;sketch=0;size=6;pointerEvents=1;points=[];fillColor=none;resizable=0;rotatable=0;perimeter=centerPerimeter;snapToPoint=1;labelBackgroundColor=none;fontColor=#000000;" vertex="1" parent="SlHaAS4gD0f9uBEAn6q1-54">
                    <mxGeometry y="37.57225433526011" width="40" height="40" as="geometry"/>
                </mxCell>
                <mxCell id="SlHaAS4gD0f9uBEAn6q1-58" value="" style="html=1;verticalLabelPosition=bottom;align=center;labelBackgroundColor=#ffffff;verticalAlign=top;strokeWidth=2;strokeColor=#000000;shadow=0;dashed=0;shape=mxgraph.ios7.icons.home;sketch=0;fillStyle=solid;fontFamily=Helvetica;fontSize=12;fontColor=default;fillColor=default;" vertex="1" parent="SlHaAS4gD0f9uBEAn6q1-53">
                    <mxGeometry x="2" y="0.3100000000000023" width="57" height="60" as="geometry"/>
                </mxCell>
                <mxCell id="SlHaAS4gD0f9uBEAn6q1-59" value="" style="group" vertex="1" connectable="0" parent="1">
                    <mxGeometry x="760" y="507" width="84" height="93" as="geometry"/>
                </mxCell>
                <mxCell id="SlHaAS4gD0f9uBEAn6q1-60" value="" style="shape=image;html=1;verticalAlign=top;verticalLabelPosition=bottom;labelBackgroundColor=#ffffff;imageAspect=0;aspect=fixed;image=https://cdn1.iconfinder.com/data/icons/ionicons-outline-vol-2/512/water-outline-128.png;sketch=0;fillStyle=solid;strokeColor=default;strokeWidth=0;fontFamily=Helvetica;fontSize=12;fontColor=default;fillColor=default;" vertex="1" parent="SlHaAS4gD0f9uBEAn6q1-59">
                    <mxGeometry width="84" height="84" as="geometry"/>
                </mxCell>
                <mxCell id="SlHaAS4gD0f9uBEAn6q1-61" value="" style="shape=image;html=1;verticalAlign=top;verticalLabelPosition=bottom;labelBackgroundColor=#ffffff;imageAspect=0;aspect=fixed;image=https://cdn0.iconfinder.com/data/icons/phosphor-duotone-vol-3/256/recycle-duotone-128.png;sketch=0;fillStyle=solid;strokeColor=default;strokeWidth=0;fontFamily=Helvetica;fontSize=12;fontColor=default;fillColor=default;" vertex="1" parent="SlHaAS4gD0f9uBEAn6q1-59">
                    <mxGeometry x="30.39000000000004" y="32.88214285714285" width="24.6" height="24.6" as="geometry"/>
                </mxCell>
                <mxCell id="SlHaAS4gD0f9uBEAn6q1-62" value="" style="group" vertex="1" connectable="0" parent="1">
                    <mxGeometry x="772" y="360" width="106" height="96.25" as="geometry"/>
                </mxCell>
                <mxCell id="SlHaAS4gD0f9uBEAn6q1-63" value="" style="strokeWidth=2;html=1;shape=mxgraph.flowchart.database;whiteSpace=wrap;labelBackgroundColor=#ffffff;sketch=0;fillStyle=solid;strokeColor=default;fontFamily=Helvetica;fontSize=12;fontColor=default;fillColor=default;" vertex="1" parent="SlHaAS4gD0f9uBEAn6q1-62">
                    <mxGeometry width="60" height="60" as="geometry"/>
                </mxCell>
                <mxCell id="SlHaAS4gD0f9uBEAn6q1-64" value="" style="shape=image;html=1;verticalAlign=top;verticalLabelPosition=bottom;labelBackgroundColor=#ffffff;imageAspect=0;aspect=fixed;image=https://cdn1.iconfinder.com/data/icons/ionicons-outline-vol-2/512/water-outline-128.png;sketch=0;fillStyle=solid;strokeColor=default;strokeWidth=0;fontFamily=Helvetica;fontSize=12;fontColor=default;fillColor=default;" vertex="1" parent="SlHaAS4gD0f9uBEAn6q1-62">
                    <mxGeometry x="10" y="20" width="40" height="40" as="geometry"/>
                </mxCell>
                <mxCell id="SlHaAS4gD0f9uBEAn6q1-65" value="" style="html=1;verticalLabelPosition=bottom;align=center;labelBackgroundColor=#ffffff;verticalAlign=top;strokeWidth=2;strokeColor=#000000;shadow=0;dashed=0;shape=mxgraph.ios7.icons.home;sketch=0;fillStyle=solid;fontFamily=Helvetica;fontSize=12;fontColor=default;fillColor=default;" vertex="1" parent="1">
                    <mxGeometry x="965.5" y="511.31" width="57" height="60" as="geometry"/>
                </mxCell>
                <mxCell id="SlHaAS4gD0f9uBEAn6q1-66" value="" style="group" vertex="1" connectable="0" parent="1">
                    <mxGeometry x="940" y="610" width="161" height="52.57543352601158" as="geometry"/>
                </mxCell>
                <mxCell id="SlHaAS4gD0f9uBEAn6q1-67" value="" style="shape=ext;double=1;rounded=1;whiteSpace=wrap;html=1;labelBackgroundColor=#ffffff;fillStyle=auto;strokeWidth=3;fontFamily=Helvetica;fontSize=12;perimeterSpacing=0;shadow=0;glass=0;" vertex="1" parent="SlHaAS4gD0f9uBEAn6q1-66">
                    <mxGeometry x="110" y="16.78048780487802" width="51" height="31.21951219512195" as="geometry"/>
                </mxCell>
                <mxCell id="SlHaAS4gD0f9uBEAn6q1-68" value="" style="shape=link;html=1;rounded=0;strokeWidth=5;fontFamily=Helvetica;fontSize=12;fontColor=default;" edge="1" parent="SlHaAS4gD0f9uBEAn6q1-66">
                    <mxGeometry x="-1" y="191" width="100" relative="1" as="geometry">
                        <mxPoint x="118.92499999999995" y="44.09756097560978" as="sourcePoint"/>
                        <mxPoint x="118.92499999999995" y="20.68292682926824" as="targetPoint"/>
                        <mxPoint x="1" y="20" as="offset"/>
                    </mxGeometry>
                </mxCell>
                <mxCell id="SlHaAS4gD0f9uBEAn6q1-69" value="" style="shape=link;html=1;rounded=0;strokeWidth=5;fontFamily=Helvetica;fontSize=12;fontColor=default;" edge="1" parent="SlHaAS4gD0f9uBEAn6q1-66">
                    <mxGeometry x="-1" y="191" width="100" relative="1" as="geometry">
                        <mxPoint x="127.42499999999995" y="44.09756097560978" as="sourcePoint"/>
                        <mxPoint x="127.42499999999995" y="20.68292682926824" as="targetPoint"/>
                        <mxPoint x="1" y="20" as="offset"/>
                    </mxGeometry>
                </mxCell>
                <mxCell id="SlHaAS4gD0f9uBEAn6q1-70" value="" style="shape=link;html=1;rounded=0;strokeWidth=5;fontFamily=Helvetica;fontSize=12;fontColor=default;" edge="1" parent="SlHaAS4gD0f9uBEAn6q1-66">
                    <mxGeometry x="-1" y="191" width="100" relative="1" as="geometry">
                        <mxPoint x="135.92499999999995" y="44.09756097560978" as="sourcePoint"/>
                        <mxPoint x="135.92499999999995" y="20.68292682926824" as="targetPoint"/>
                        <mxPoint x="1" y="20" as="offset"/>
                    </mxGeometry>
                </mxCell>
                <mxCell id="SlHaAS4gD0f9uBEAn6q1-71" value="" style="shape=link;html=1;rounded=0;strokeWidth=5;fontFamily=Helvetica;fontSize=12;fontColor=default;" edge="1" parent="SlHaAS4gD0f9uBEAn6q1-66">
                    <mxGeometry x="-1" y="191" width="100" relative="1" as="geometry">
                        <mxPoint x="144.42499999999995" y="44.09756097560978" as="sourcePoint"/>
                        <mxPoint x="144.42499999999995" y="20.68292682926824" as="targetPoint"/>
                        <mxPoint x="1" y="20" as="offset"/>
                    </mxGeometry>
                </mxCell>
                <mxCell id="SlHaAS4gD0f9uBEAn6q1-72" value="" style="shape=link;html=1;rounded=0;strokeWidth=5;fontFamily=Helvetica;fontSize=12;fontColor=default;" edge="1" parent="SlHaAS4gD0f9uBEAn6q1-66">
                    <mxGeometry x="-1" y="191" width="100" relative="1" as="geometry">
                        <mxPoint x="152.92499999999995" y="44.09756097560978" as="sourcePoint"/>
                        <mxPoint x="152.92499999999995" y="20.68292682926824" as="targetPoint"/>
                        <mxPoint x="1" y="20" as="offset"/>
                    </mxGeometry>
                </mxCell>
                <mxCell id="SlHaAS4gD0f9uBEAn6q1-73" value="" style="shape=image;html=1;verticalAlign=top;verticalLabelPosition=bottom;labelBackgroundColor=#ffffff;imageAspect=0;aspect=fixed;image=https://cdn1.iconfinder.com/data/icons/ionicons-outline-vol-2/512/water-outline-128.png;sketch=0;fillStyle=solid;strokeColor=default;strokeWidth=0;fontFamily=Helvetica;fontSize=12;fontColor=default;fillColor=default;imageBackground=none;connectable=0;" vertex="1" parent="SlHaAS4gD0f9uBEAn6q1-66">
                    <mxGeometry x="125.68249999999989" width="15.687804878048782" height="15.687804878048782" as="geometry"/>
                </mxCell>
                <mxCell id="SlHaAS4gD0f9uBEAn6q1-74" value="" style="shape=image;html=1;verticalAlign=top;verticalLabelPosition=bottom;labelBackgroundColor=#ffffff;imageAspect=0;aspect=fixed;image=https://cdn1.iconfinder.com/data/icons/ionicons-outline-vol-2/512/water-outline-128.png;sketch=0;fillStyle=solid;strokeColor=default;strokeWidth=0;fontFamily=Helvetica;fontSize=12;fontColor=default;fillColor=default;imageBackground=none;connectable=0;" vertex="1" parent="SlHaAS4gD0f9uBEAn6q1-66">
                    <mxGeometry x="111.65750000000003" y="3.121951219512198" width="15.687804878048782" height="15.687804878048782" as="geometry"/>
                </mxCell>
                <mxCell id="SlHaAS4gD0f9uBEAn6q1-75" value="" style="shape=image;html=1;verticalAlign=top;verticalLabelPosition=bottom;labelBackgroundColor=#ffffff;imageAspect=0;aspect=fixed;image=https://cdn1.iconfinder.com/data/icons/ionicons-outline-vol-2/512/water-outline-128.png;sketch=0;fillStyle=solid;strokeColor=default;strokeWidth=0;fontFamily=Helvetica;fontSize=12;fontColor=default;fillColor=default;imageBackground=none;connectable=0;" vertex="1" parent="SlHaAS4gD0f9uBEAn6q1-66">
                    <mxGeometry x="138.4324999999999" y="2.7317073170731874" width="15.687804878048782" height="15.687804878048782" as="geometry"/>
                </mxCell>
                <mxCell id="SlHaAS4gD0f9uBEAn6q1-76" value="" style="shape=ext;double=1;rounded=1;whiteSpace=wrap;html=1;labelBackgroundColor=#ffffff;fillStyle=auto;strokeWidth=3;fontFamily=Helvetica;fontSize=12;perimeterSpacing=0;shadow=0;glass=0;" vertex="1" parent="SlHaAS4gD0f9uBEAn6q1-66">
                    <mxGeometry y="16.78048780487802" width="51" height="31.21951219512195" as="geometry"/>
                </mxCell>
                <mxCell id="SlHaAS4gD0f9uBEAn6q1-77" value="" style="shape=link;html=1;rounded=0;strokeWidth=5;fontFamily=Helvetica;fontSize=12;fontColor=default;" edge="1" parent="SlHaAS4gD0f9uBEAn6q1-66">
                    <mxGeometry x="-1" y="191" width="100" relative="1" as="geometry">
                        <mxPoint x="8.924999999999955" y="44.09756097560978" as="sourcePoint"/>
                        <mxPoint x="8.924999999999955" y="20.68292682926824" as="targetPoint"/>
                        <mxPoint x="1" y="20" as="offset"/>
                    </mxGeometry>
                </mxCell>
                <mxCell id="SlHaAS4gD0f9uBEAn6q1-78" value="" style="shape=link;html=1;rounded=0;strokeWidth=5;fontFamily=Helvetica;fontSize=12;fontColor=default;" edge="1" parent="SlHaAS4gD0f9uBEAn6q1-66">
                    <mxGeometry x="-1" y="191" width="100" relative="1" as="geometry">
                        <mxPoint x="17.424999999999955" y="44.09756097560978" as="sourcePoint"/>
                        <mxPoint x="17.424999999999955" y="20.68292682926824" as="targetPoint"/>
                        <mxPoint x="1" y="20" as="offset"/>
                    </mxGeometry>
                </mxCell>
                <mxCell id="SlHaAS4gD0f9uBEAn6q1-79" value="" style="shape=link;html=1;rounded=0;strokeWidth=5;fontFamily=Helvetica;fontSize=12;fontColor=default;" edge="1" parent="SlHaAS4gD0f9uBEAn6q1-66">
                    <mxGeometry x="-1" y="191" width="100" relative="1" as="geometry">
                        <mxPoint x="25.924999999999955" y="44.09756097560978" as="sourcePoint"/>
                        <mxPoint x="25.924999999999955" y="20.68292682926824" as="targetPoint"/>
                        <mxPoint x="1" y="20" as="offset"/>
                    </mxGeometry>
                </mxCell>
                <mxCell id="SlHaAS4gD0f9uBEAn6q1-80" value="" style="shape=link;html=1;rounded=0;strokeWidth=5;fontFamily=Helvetica;fontSize=12;fontColor=default;" edge="1" parent="SlHaAS4gD0f9uBEAn6q1-66">
                    <mxGeometry x="-1" y="191" width="100" relative="1" as="geometry">
                        <mxPoint x="34.424999999999955" y="44.09756097560978" as="sourcePoint"/>
                        <mxPoint x="34.424999999999955" y="20.68292682926824" as="targetPoint"/>
                        <mxPoint x="1" y="20" as="offset"/>
                    </mxGeometry>
                </mxCell>
                <mxCell id="SlHaAS4gD0f9uBEAn6q1-81" value="" style="shape=link;html=1;rounded=0;strokeWidth=5;fontFamily=Helvetica;fontSize=12;fontColor=default;" edge="1" parent="SlHaAS4gD0f9uBEAn6q1-66">
                    <mxGeometry x="-1" y="191" width="100" relative="1" as="geometry">
                        <mxPoint x="42.924999999999955" y="44.09756097560978" as="sourcePoint"/>
                        <mxPoint x="42.924999999999955" y="20.68292682926824" as="targetPoint"/>
                        <mxPoint x="1" y="20" as="offset"/>
                    </mxGeometry>
                </mxCell>
                <mxCell id="SlHaAS4gD0f9uBEAn6q1-82" value="" style="shape=image;html=1;verticalAlign=top;verticalLabelPosition=bottom;labelBackgroundColor=#ffffff;imageAspect=0;aspect=fixed;image=https://cdn1.iconfinder.com/data/icons/ionicons-outline-vol-2/512/water-outline-128.png;sketch=0;fillStyle=solid;strokeColor=default;strokeWidth=0;fontFamily=Helvetica;fontSize=12;fontColor=default;fillColor=default;imageBackground=none;connectable=0;" vertex="1" parent="SlHaAS4gD0f9uBEAn6q1-66">
                    <mxGeometry x="15.682500000000005" width="15.687804878048782" height="15.687804878048782" as="geometry"/>
                </mxCell>
                <mxCell id="SlHaAS4gD0f9uBEAn6q1-83" value="" style="shape=image;html=1;verticalAlign=top;verticalLabelPosition=bottom;labelBackgroundColor=#ffffff;imageAspect=0;aspect=fixed;image=https://cdn1.iconfinder.com/data/icons/ionicons-outline-vol-2/512/water-outline-128.png;sketch=0;fillStyle=solid;strokeColor=default;strokeWidth=0;fontFamily=Helvetica;fontSize=12;fontColor=default;fillColor=default;imageBackground=none;connectable=0;" vertex="1" parent="SlHaAS4gD0f9uBEAn6q1-66">
                    <mxGeometry x="1.6575000000000273" y="3.121951219512198" width="15.687804878048782" height="15.687804878048782" as="geometry"/>
                </mxCell>
                <mxCell id="SlHaAS4gD0f9uBEAn6q1-84" value="" style="shape=image;html=1;verticalAlign=top;verticalLabelPosition=bottom;labelBackgroundColor=#ffffff;imageAspect=0;aspect=fixed;image=https://cdn1.iconfinder.com/data/icons/ionicons-outline-vol-2/512/water-outline-128.png;sketch=0;fillStyle=solid;strokeColor=default;strokeWidth=0;fontFamily=Helvetica;fontSize=12;fontColor=default;fillColor=default;imageBackground=none;connectable=0;" vertex="1" parent="SlHaAS4gD0f9uBEAn6q1-66">
                    <mxGeometry x="28.432500000000005" y="2.7317073170731874" width="15.687804878048782" height="15.687804878048782" as="geometry"/>
                </mxCell>
                <mxCell id="SlHaAS4gD0f9uBEAn6q1-85" value="" style="group;rotation=-90;" vertex="1" connectable="0" parent="SlHaAS4gD0f9uBEAn6q1-66">
                    <mxGeometry x="60" y="-4.996820809248561" width="40" height="75.14450867052022" as="geometry"/>
                </mxCell>
                <mxCell id="SlHaAS4gD0f9uBEAn6q1-86" value="" style="shape=waypoint;sketch=0;size=6;pointerEvents=1;points=[];fillColor=none;resizable=0;rotatable=0;perimeter=centerPerimeter;snapToPoint=1;labelBackgroundColor=none;fontColor=#000000;rotation=-90;" vertex="1" parent="SlHaAS4gD0f9uBEAn6q1-85">
                    <mxGeometry x="-18" y="18" width="40" height="40" as="geometry"/>
                </mxCell>
                <mxCell id="SlHaAS4gD0f9uBEAn6q1-87" value="" style="shape=waypoint;sketch=0;size=6;pointerEvents=1;points=[];fillColor=none;resizable=0;rotatable=0;perimeter=centerPerimeter;snapToPoint=1;labelBackgroundColor=none;fontColor=#000000;rotation=-90;" vertex="1" parent="SlHaAS4gD0f9uBEAn6q1-85">
                    <mxGeometry x="1" y="18" width="40" height="40" as="geometry"/>
                </mxCell>
                <mxCell id="SlHaAS4gD0f9uBEAn6q1-88" value="" style="shape=waypoint;sketch=0;size=6;pointerEvents=1;points=[];fillColor=none;resizable=0;rotatable=0;perimeter=centerPerimeter;snapToPoint=1;labelBackgroundColor=none;fontColor=#000000;rotation=-90;" vertex="1" parent="SlHaAS4gD0f9uBEAn6q1-85">
                    <mxGeometry x="20" y="18" width="40" height="40" as="geometry"/>
                </mxCell>
            </root>
        </mxGraphModel>
    </diagram>
    <diagram id="qugD-ClCj9LAYJ-hbDgu" name="smart-city">
        <mxGraphModel dx="1019" dy="-1574" grid="1" gridSize="10" guides="1" tooltips="1" connect="1" arrows="1" fold="1" page="1" pageScale="1" pageWidth="850" pageHeight="1100" math="0" shadow="0">
            <root>
                <mxCell id="0"/>
                <mxCell id="1" parent="0"/>
                <mxCell id="ugpPyibBAcFRLjeaAV24-1" value="" style="group;aspect=fixed;" vertex="1" connectable="0" parent="1">
                    <mxGeometry x="230" y="2360" width="390" height="390" as="geometry"/>
                </mxCell>
                <mxCell id="ugpPyibBAcFRLjeaAV24-2" value="&lt;span style=&quot;font-size: 30px;&quot;&gt;&lt;b style=&quot;font-size: 21px;&quot;&gt;&lt;font style=&quot;font-size: 21px;&quot; color=&quot;#1a1a1a&quot;&gt;SMART&lt;br&gt;CITY&lt;/font&gt;&lt;br&gt;&lt;/b&gt;&lt;/span&gt;" style="shape=hexagon;perimeter=hexagonPerimeter2;whiteSpace=wrap;html=1;shadow=0;labelBackgroundColor=none;strokeColor=#666666;fillColor=#f5f5f5;fontFamily=Helvetica;fontSize=23;fontColor=#333333;align=center;strokeWidth=3;" vertex="1" parent="ugpPyibBAcFRLjeaAV24-1">
                    <mxGeometry x="117.03947368421058" y="130.06578947368402" width="155.9210526315789" height="129.93421052631587" as="geometry"/>
                </mxCell>
                <mxCell id="ugpPyibBAcFRLjeaAV24-3" value="" style="triangle;whiteSpace=wrap;html=1;shadow=0;labelBackgroundColor=none;strokeColor=none;fillColor=#FFFFFF;fontFamily=Helvetica;fontSize=17;fontColor=#23445d;align=center;rotation=90;gradientColor=none;flipV=1;flipH=1;opacity=20;" vertex="1" parent="ugpPyibBAcFRLjeaAV24-1">
                    <mxGeometry x="57.49999999999999" y="139.00000000000009" width="35.99999999999999" height="76.00000000000004" as="geometry"/>
                </mxCell>
                <mxCell id="ugpPyibBAcFRLjeaAV24-4" value="&lt;font style=&quot;font-size: 18px;&quot;&gt;Public&lt;br&gt;Safety&lt;br&gt;&lt;/font&gt;" style="shape=hexagon;perimeter=hexagonPerimeter2;whiteSpace=wrap;html=1;shadow=0;labelBackgroundColor=none;strokeColor=#d6b656;fillColor=#fff2cc;fontFamily=Helvetica;fontSize=23;align=center;strokeWidth=3;" vertex="1" parent="ugpPyibBAcFRLjeaAV24-1">
                    <mxGeometry x="117.03947368421058" width="155.9210526315789" height="129.93421052631587" as="geometry"/>
                </mxCell>
                <mxCell id="ugpPyibBAcFRLjeaAV24-5" value="&lt;font style=&quot;font-size: 18px;&quot;&gt;Waste&lt;br&gt;Management&lt;/font&gt;" style="shape=hexagon;perimeter=hexagonPerimeter2;whiteSpace=wrap;html=1;shadow=0;labelBackgroundColor=none;strokeColor=#B85450;fillColor=#f8cecc;fontFamily=Helvetica;fontSize=23;align=center;strokeWidth=3;" vertex="1" parent="ugpPyibBAcFRLjeaAV24-1">
                    <mxGeometry x="234.07894736842107" y="64.76644736842108" width="155.9210526315789" height="129.93421052631587" as="geometry"/>
                </mxCell>
                <mxCell id="ugpPyibBAcFRLjeaAV24-6" value="&lt;font style=&quot;font-size: 18px;&quot;&gt;Smart&lt;br&gt;Parking&lt;br&gt;&lt;/font&gt;" style="shape=hexagon;perimeter=hexagonPerimeter2;whiteSpace=wrap;html=1;shadow=0;labelBackgroundColor=none;strokeColor=#9673a6;fillColor=#e1d5e7;fontFamily=Helvetica;fontSize=23;align=center;strokeWidth=3;" vertex="1" parent="ugpPyibBAcFRLjeaAV24-1">
                    <mxGeometry x="234.07894736842107" y="194.79934210526324" width="155.9210526315789" height="129.93421052631587" as="geometry"/>
                </mxCell>
                <mxCell id="ugpPyibBAcFRLjeaAV24-7" value="&lt;font style=&quot;font-size: 18px;&quot;&gt;Street&lt;br&gt;Lightning&lt;br&gt;&lt;/font&gt;" style="shape=hexagon;perimeter=hexagonPerimeter2;whiteSpace=wrap;html=1;shadow=0;labelBackgroundColor=none;strokeColor=#82b366;fillColor=#d5e8d4;fontFamily=Helvetica;fontSize=23;align=center;strokeWidth=3;" vertex="1" parent="ugpPyibBAcFRLjeaAV24-1">
                    <mxGeometry x="117.03947368421058" y="260.0657894736841" width="155.9210526315789" height="129.93421052631587" as="geometry"/>
                </mxCell>
                <mxCell id="ugpPyibBAcFRLjeaAV24-8" value="&lt;font style=&quot;font-size: 18px;&quot;&gt;Public&lt;br&gt;Transport&lt;br&gt;&lt;/font&gt;" style="shape=hexagon;perimeter=hexagonPerimeter2;whiteSpace=wrap;html=1;shadow=0;labelBackgroundColor=none;strokeColor=#6c8ebf;fillColor=#dae8fc;fontFamily=Helvetica;fontSize=23;align=center;strokeWidth=3;" vertex="1" parent="ugpPyibBAcFRLjeaAV24-1">
                    <mxGeometry y="194.79934210526324" width="155.9210526315789" height="129.93421052631587" as="geometry"/>
                </mxCell>
                <mxCell id="ugpPyibBAcFRLjeaAV24-9" value="&lt;font style=&quot;font-size: 18px;&quot;&gt;Road&lt;br&gt;Traffic&lt;br&gt;&lt;/font&gt;" style="shape=hexagon;perimeter=hexagonPerimeter2;whiteSpace=wrap;html=1;shadow=0;labelBackgroundColor=none;strokeColor=#D79B00;fillColor=#ffe6cc;fontFamily=Helvetica;fontSize=23;align=center;strokeWidth=3;" vertex="1" parent="ugpPyibBAcFRLjeaAV24-1">
                    <mxGeometry x="5.684341886080802e-14" y="64.76644736842108" width="155.9210526315789" height="129.93421052631587" as="geometry"/>
                </mxCell>
                <mxCell id="ugpPyibBAcFRLjeaAV24-10" value="" style="triangle;whiteSpace=wrap;html=1;shadow=0;labelBackgroundColor=none;strokeColor=none;fillColor=#B85450;fontFamily=Helvetica;fontSize=17;fontColor=#23445d;align=center;rotation=31;gradientColor=none;strokeWidth=3;" vertex="1" parent="ugpPyibBAcFRLjeaAV24-1">
                    <mxGeometry x="252.75000000000003" y="82.00000000000004" width="17.499999999999996" height="36.50000000000002" as="geometry"/>
                </mxCell>
                <mxCell id="ugpPyibBAcFRLjeaAV24-11" value="" style="triangle;whiteSpace=wrap;html=1;shadow=0;labelBackgroundColor=none;strokeColor=none;fillColor=#6C8EBF;fontFamily=Helvetica;fontSize=17;fontColor=#23445d;align=center;rotation=31;gradientColor=none;flipH=1;strokeWidth=3;" vertex="1" parent="ugpPyibBAcFRLjeaAV24-1">
                    <mxGeometry x="119.99999999999997" y="269.99999999999994" width="17.499999999999996" height="36.50000000000002" as="geometry"/>
                </mxCell>
                <mxCell id="ugpPyibBAcFRLjeaAV24-12" value="" style="triangle;whiteSpace=wrap;html=1;shadow=0;labelBackgroundColor=none;strokeColor=#d6b656;fillColor=#D6B656;fontFamily=Helvetica;fontSize=17;align=center;rotation=329;strokeWidth=3;" vertex="1" parent="ugpPyibBAcFRLjeaAV24-1">
                    <mxGeometry x="134.99999999999997" y="74.50000000000004" width="17.499999999999996" height="36.50000000000002" as="geometry"/>
                </mxCell>
                <mxCell id="ugpPyibBAcFRLjeaAV24-13" value="" style="triangle;whiteSpace=wrap;html=1;shadow=0;labelBackgroundColor=none;strokeColor=none;fillColor=#82B366;fontFamily=Helvetica;fontSize=17;fontColor=#23445d;align=center;rotation=329;gradientColor=none;flipH=1;strokeWidth=3;" vertex="1" parent="ugpPyibBAcFRLjeaAV24-1">
                    <mxGeometry x="236.5" y="277.4999999999999" width="17.499999999999996" height="36.50000000000002" as="geometry"/>
                </mxCell>
                <mxCell id="ugpPyibBAcFRLjeaAV24-14" value="" style="triangle;whiteSpace=wrap;html=1;shadow=0;labelBackgroundColor=none;strokeColor=none;fillColor=#9673A6;fontFamily=Helvetica;fontSize=17;fontColor=#23445d;align=center;rotation=90;gradientColor=none;strokeWidth=3;" vertex="1" parent="ugpPyibBAcFRLjeaAV24-1">
                    <mxGeometry x="303.28947368421046" y="184.75000000000006" width="17.499999999999996" height="36.50000000000002" as="geometry"/>
                </mxCell>
                <mxCell id="ugpPyibBAcFRLjeaAV24-15" value="" style="triangle;whiteSpace=wrap;html=1;shadow=0;labelBackgroundColor=none;strokeColor=none;fillColor=#D79B00;fontFamily=Helvetica;fontSize=17;fontColor=#23445d;align=center;rotation=90;gradientColor=none;flipH=1;strokeWidth=3;" vertex="1" parent="ugpPyibBAcFRLjeaAV24-1">
                    <mxGeometry x="69.21052631578948" y="167.75000000000009" width="17.499999999999996" height="36.50000000000002" as="geometry"/>
                </mxCell>
            </root>
        </mxGraphModel>
    </diagram>
</mxfile>